<?xml version="1.0" encoding="utf-8"?>
<!-- Generator: Adobe Illustrator 27.9.0, SVG Export Plug-In . SVG Version: 6.00 Build 0)  -->
<svg version="1.1" id="Calque_1" xmlns="http://www.w3.org/2000/svg" xmlns:xlink="http://www.w3.org/1999/xlink" x="0px" y="0px"
	 viewBox="0 0 60 60" style="enable-background:new 0 0 60 60;" xml:space="preserve">
<style type="text/css">
	.st0{fill:url(#SVGID_1_);}
	.st1{opacity:0.9;fill:url(#SVGID_00000161624033850190291310000008705628075006107310_);enable-background:new    ;}
	.st2{opacity:0.8;fill:#FFFFFF;enable-background:new    ;}
	.st3{opacity:0.5;fill:url(#SVGID_00000088106173782732057540000001361994604746666917_);enable-background:new    ;}
	.st4{opacity:0.6;fill:url(#SVGID_00000141422385092232501430000000916414432592111756_);enable-background:new    ;}
	.st5{opacity:0.9;fill:url(#SVGID_00000052798772890707645000000009839753347068443053_);enable-background:new    ;}
	.st6{opacity:0.4;fill:url(#SVGID_00000023267551249445126750000015295911200173120157_);enable-background:new    ;}
	.st7{opacity:0.5;fill:url(#SVGID_00000119812015333347325350000004631380916098944695_);enable-background:new    ;}
	.st8{opacity:0.9;fill:url(#SVGID_00000120517495248309506200000001682396134252936846_);enable-background:new    ;}
	.st9{opacity:0.3;fill:url(#SVGID_00000058571601501267443480000009476482332471855286_);enable-background:new    ;}
	.st10{opacity:0.4;fill:url(#SVGID_00000113354484569778896600000000325982796513093025_);enable-background:new    ;}
	.st11{opacity:0.4;fill:url(#SVGID_00000002363493641472018910000008956534850985492634_);enable-background:new    ;}
	.st12{opacity:0.4;fill:url(#SVGID_00000168802225351375294450000011073924337905750667_);enable-background:new    ;}
	.st13{opacity:0.4;fill:url(#SVGID_00000088099200440008995330000008178799224058085278_);enable-background:new    ;}
	.st14{opacity:0.5;fill:url(#SVGID_00000038376636756036669070000013448615292921980312_);enable-background:new    ;}
	.st15{opacity:0.5;fill:url(#SVGID_00000015343796879189012540000018340328516323840434_);enable-background:new    ;}
	.st16{opacity:0.5;fill:url(#SVGID_00000075143424995675944640000000427704653854876033_);enable-background:new    ;}
	.st17{opacity:0.6;fill:url(#SVGID_00000176042694196595943430000004170309998312785537_);enable-background:new    ;}
	.st18{opacity:0.5;fill:url(#SVGID_00000153664087613751580790000008629899411041312167_);enable-background:new    ;}
	.st19{opacity:0.6;fill:url(#SVGID_00000090266575446389796140000004596905322617401505_);enable-background:new    ;}
	.st20{opacity:0.3;fill:url(#SVGID_00000057827014840733573590000018145642524351760291_);enable-background:new    ;}
	.st21{opacity:0.3;fill:url(#SVGID_00000074436331763786653930000008222349507608197043_);enable-background:new    ;}
	.st22{opacity:0.3;fill:url(#SVGID_00000173137340996448781000000005079639778655480987_);enable-background:new    ;}
	.st23{opacity:0.3;fill:url(#SVGID_00000096738436022695212010000016845982925125969313_);enable-background:new    ;}
	.st24{opacity:0.3;fill:url(#SVGID_00000057143889397193067740000004352667050928689797_);enable-background:new    ;}
	.st25{opacity:0.3;fill:url(#SVGID_00000072279542209096158480000000355957980426044091_);enable-background:new    ;}
</style>
<linearGradient id="SVGID_1_" gradientUnits="userSpaceOnUse" x1="9.5237" y1="11.7157" x2="47.7728" y2="49.9697" gradientTransform="matrix(1 0 0 -1 0 62.1877)">
	<stop  offset="0" style="stop-color:#E6097B"/>
	<stop  offset="0.21" style="stop-color:#5E4696"/>
	<stop  offset="0.46" style="stop-color:#3469B2"/>
	<stop  offset="0.77" style="stop-color:#418DCB"/>
	<stop  offset="1" style="stop-color:#60C4E5"/>
</linearGradient>
<path class="st0" d="M59.92,27.97C58.8,11.43,44.49-1.05,27.96,0.07C19.73,0.63,12.5,4.47,7.45,10.21L7.44,10.2
	c-0.04,0.05-0.07,0.09-0.1,0.14c-5.01,5.78-7.83,13.46-7.27,21.7c0.05,0.79,0.14,1.56,0.26,2.32c0,0.04,0.01,0.07,0.01,0.1
	c0.08,0.5,0.16,1.01,0.26,1.5c0.09,0.46,0.19,0.91,0.31,1.36c3.47,13.82,16.41,23.6,31.12,22.6c16.53-1.12,29.02-15.43,27.89-31.96
	L59.92,27.97z M53.39,28.41c0.14,2.03,0.01,4.03-0.35,5.95c0-0.01-0.01-0.02-0.01-0.03c-2.18-5.31-6.48-9.15-10.26-11.27
	c0.76-9.01-2.29-12.8-5.75-13.42c-2.72-0.51-5.33,1.28-5.84,3.99c-0.02,0.1-0.03,0.19-0.05,0.29c-0.35,2.74,1.58,5.25,4.32,5.6
	c0,0,0.01,0,0.01,0c0.24,0.03,0.48,0.04,0.71,0.04c0.02,0.32,0.03,0.64,0.03,0.97c-3.2-0.79-6.19-0.95-8.91-0.7
	c-1.03,0.07-2.05,0.2-3.06,0.39c0.34-3.04,1.48-6.46,3.7-8.95c2.14-2.42,5.32-3.8,8.79-3.44c0.66,0.07,1.36,0.23,1.99,0.44
	c0.03,0.01,0.06,0.02,0.09,0.02C46.84,11.55,52.76,19.19,53.39,28.41C53.39,28.41,53.39,28.41,53.39,28.41z M32.48,32.99
	C32.48,32.99,32.48,33,32.48,32.99c-0.76,1.1-1.62,2.12-2.57,3.04c-1.44-1.52-2.65-3.23-3.61-5.09c-0.05-0.1-0.1-0.18-0.14-0.28
	v-0.01c-0.56-1.2-1.01-2.46-1.34-3.74c2.13-0.5,4.22-0.69,6.22-0.59l0.32,0.01h0.01c1.25,0.1,2.56,0.33,3.91,0.7
	C34.63,29.15,33.7,31.15,32.48,32.99C32.49,32.99,32.48,32.99,32.48,32.99z M22.23,7.87l-0.01,0.02
	c-3.52,4.54-4.69,10.18-4.64,14.51c-8.18,3.84-9.94,8.38-8.75,11.69c0.03,0.09,0.07,0.18,0.1,0.27c1.07,2.55,4,3.76,6.56,2.69
	c2.55-1.07,3.76-4,2.69-6.56c-0.09-0.22-0.2-0.43-0.32-0.63c0.26-0.17,0.53-0.34,0.83-0.51c0.91,3.17,2.26,5.84,3.84,8.08
	c0.57,0.85,1.19,1.66,1.86,2.45c-2.8,1.23-6.34,1.95-9.61,1.28c-3.16-0.65-5.95-2.71-7.38-5.89c-0.27-0.62-0.48-1.28-0.62-1.94
	c-0.08-0.57-0.15-1.15-0.19-1.73C5.86,20.84,12.53,11.28,22.23,7.87z M31.59,53.39c-6.38,0.44-12.35-1.74-16.85-5.61
	c5.69,0.78,11.16-1.03,14.89-3.24c7.42,5.17,12.23,4.42,14.5,1.74c1.8-2.1,1.56-5.26-0.54-7.06c-0.07-0.06-0.15-0.13-0.23-0.19
	c-2.2-1.68-5.34-1.25-7.02,0.95c0,0,0,0,0,0c-0.14,0.19-0.27,0.4-0.38,0.6c-0.27-0.14-0.56-0.29-0.85-0.46
	c2.09-2.16,3.8-4.65,5.07-7.37c0.45-0.92,0.85-1.87,1.19-2.84c2.47,1.82,4.86,4.51,5.92,7.68c1.02,3.06,0.63,6.51-1.41,9.34
	c-0.4,0.55-0.86,1.05-1.38,1.5l-0.02,0.02C40.77,51.35,36.28,53.08,31.59,53.39C31.59,53.39,31.59,53.39,31.59,53.39z"/>
<radialGradient id="SVGID_00000042733727763147960120000000436440330877886343_" cx="-847.1418" cy="526.4843" r="1" gradientTransform="matrix(11.408 0 0 -11.408 9702.7412 6030.0562)" gradientUnits="userSpaceOnUse">
	<stop  offset="0" style="stop-color:#FFFFFF"/>
	<stop  offset="1" style="stop-color:#FFFFFF;stop-opacity:0"/>
</radialGradient>
<path style="opacity:0.9;fill:url(#SVGID_00000042733727763147960120000000436440330877886343_);enable-background:new    ;" d="
	M37.02,9.63c-0.56-0.11-1.14-0.11-1.71-0.02c2.87,1.56,4.96,5.91,3.86,14.49c-0.36,2.79-1.18,5.5-2.43,8.03
	c-1.07,2.3-2.47,4.44-4.14,6.35c0.79,0.6,1.63,1.14,2.49,1.64c2.09-2.16,3.8-4.65,5.07-7.37c1.25-2.52,2.07-5.24,2.43-8.03
	C43.9,14.5,40.69,10.28,37.02,9.63L37.02,9.63L37.02,9.63z"/>
<path class="st2" d="M39.17,24.09c1.1-8.58-0.99-12.93-3.86-14.49c-0.11,0.02-0.22,0.04-0.33,0.07c2.81,1.62,4.83,5.96,3.75,14.43
	c-0.36,2.79-1.18,5.5-2.43,8.03c-1.03,2.22-2.37,4.29-3.97,6.15c0.09,0.07,0.18,0.14,0.27,0.21c1.67-1.91,3.07-4.05,4.14-6.36
	C37.99,29.6,38.81,26.89,39.17,24.09L39.17,24.09z"/>
<radialGradient id="SVGID_00000093874446756234733430000013568874321122785158_" cx="-788.6615" cy="494.4327" r="1" gradientTransform="matrix(6.6384 0 0 -6.6384 5257.1226 3327.3245)" gradientUnits="userSpaceOnUse">
	<stop  offset="0" style="stop-color:#FFFFFF"/>
	<stop  offset="1" style="stop-color:#FFFFFF;stop-opacity:0"/>
</radialGradient>
<path style="opacity:0.5;fill:url(#SVGID_00000093874446756234733430000013568874321122785158_);enable-background:new    ;" d="
	M28.26,43.56c-0.27-0.21-0.53-0.42-0.79-0.64c-4.24,1.77-10.1,2.88-15.94,1.52c0.95,1.22,2.02,2.34,3.19,3.34
	c5.69,0.78,11.16-1.03,14.89-3.24C29.16,44.22,28.7,43.89,28.26,43.56L28.26,43.56z"/>
<linearGradient id="SVGID_00000115499341664732928950000016866825682517191822_" gradientUnits="userSpaceOnUse" x1="11.727" y1="18.2244" x2="18.125" y2="18.3124" gradientTransform="matrix(1 0 0 -1 0 62.1877)">
	<stop  offset="0" style="stop-color:#FFFFFF;stop-opacity:0"/>
	<stop  offset="1" style="stop-color:#FFFFFF"/>
</linearGradient>
<path style="opacity:0.6;fill:url(#SVGID_00000115499341664732928950000016866825682517191822_);enable-background:new    ;" d="
	M27.48,42.92c-0.13-0.11-0.26-0.22-0.38-0.32c-4.27,1.7-10.17,2.73-15.98,1.27c0.14,0.19,0.29,0.38,0.43,0.57
	C17.37,45.8,23.24,44.69,27.48,42.92L27.48,42.92z"/>
<radialGradient id="SVGID_00000035490273775137939160000008454140963074108853_" cx="-1007.8645" cy="522.9101" r="1" gradientTransform="matrix(-5.704 -9.8796 -9.8796 5.704 -562.2451 -12914.3682)" gradientUnits="userSpaceOnUse">
	<stop  offset="0" style="stop-color:#FFFFFF"/>
	<stop  offset="1" style="stop-color:#FFFFFF;stop-opacity:0"/>
</radialGradient>
<path style="opacity:0.9;fill:url(#SVGID_00000035490273775137939160000008454140963074108853_);enable-background:new    ;" d="
	M8.84,34.1c0.03,0.09,0.07,0.18,0.1,0.27c0.19,0.45,0.44,0.86,0.73,1.22C9.59,32.32,12.31,28.33,20.29,25
	c2.6-1.08,5.36-1.73,8.17-1.91c2.53-0.23,5.08-0.09,7.58,0.41c0.13-1.08,0.18-2.08,0.17-2.97c-2.91-0.73-5.93-0.97-8.92-0.7
	c-2.81,0.18-5.57,0.83-8.17,1.91C9.62,25.71,7.57,30.6,8.84,34.1L8.84,34.1L8.84,34.1z"/>
<path class="st2" d="M20.29,25c-7.98,3.34-10.7,7.33-10.62,10.59c0.07,0.09,0.15,0.17,0.23,0.25c-0.01-3.24,2.75-7.16,10.62-10.46
	c2.6-1.08,5.36-1.73,8.17-1.91c2.44-0.22,4.9-0.09,7.31,0.36c0.02-0.11,0.03-0.23,0.04-0.34c-2.49-0.5-5.05-0.63-7.58-0.41
	C25.65,23.27,22.89,23.92,20.29,25C20.29,25,20.29,25,20.29,25z"/>
<radialGradient id="SVGID_00000145741876018140643350000013318538350692029360_" cx="-1064.8622" cy="488.2905" r="1" gradientTransform="matrix(-3.3192 -5.749 -5.749 3.3192 -680.0743 -7712.9795)" gradientUnits="userSpaceOnUse">
	<stop  offset="0" style="stop-color:#FFFFFF"/>
	<stop  offset="1" style="stop-color:#FFFFFF;stop-opacity:0"/>
</radialGradient>
<path style="opacity:0.4;fill:url(#SVGID_00000145741876018140643350000013318538350692029360_);enable-background:new    ;" d="
	M42.6,24.72c-0.04,0.34-0.1,0.67-0.15,1c3.65,2.78,7.54,7.32,9.29,13.04c0.58-1.43,1.01-2.92,1.3-4.44
	c-2.17-5.31-6.47-9.15-10.25-11.27C42.73,23.59,42.68,24.14,42.6,24.72L42.6,24.72z"/>
<linearGradient id="SVGID_00000012435217320634563030000001905233173216102561_" gradientUnits="userSpaceOnUse" x1="51.2203" y1="23.3526" x2="47.9453" y2="28.8486" gradientTransform="matrix(1 0 0 -1 0 62.1877)">
	<stop  offset="0" style="stop-color:#FFFFFF;stop-opacity:0"/>
	<stop  offset="1" style="stop-color:#FFFFFF"/>
</linearGradient>
<path style="opacity:0.5;fill:url(#SVGID_00000012435217320634563030000001905233173216102561_);enable-background:new    ;" d="
	M42.45,25.72c-0.03,0.16-0.06,0.33-0.09,0.5c3.61,2.84,7.44,7.44,9.09,13.2c0.1-0.22,0.19-0.44,0.28-0.66
	C49.98,33.03,46.09,28.5,42.45,25.72L42.45,25.72z"/>
<radialGradient id="SVGID_00000101103088673126160860000015982954133866660532_" cx="-930.5984" cy="663.8871" r="1" gradientTransform="matrix(-5.704 9.8796 9.8796 5.704 -11836.6465 5447.0557)" gradientUnits="userSpaceOnUse">
	<stop  offset="0" style="stop-color:#FFFFFF"/>
	<stop  offset="1" style="stop-color:#FFFFFF;stop-opacity:0"/>
</radialGradient>
<path style="opacity:0.9;fill:url(#SVGID_00000101103088673126160860000015982954133866660532_);enable-background:new    ;" d="
	M44.12,46.27c0.37-0.44,0.67-0.93,0.87-1.47c-2.79,1.7-7.6,1.34-14.48-3.9c-2.24-1.71-4.18-3.78-5.74-6.12
	c-1.46-2.08-2.62-4.36-3.43-6.77c-1,0.43-1.89,0.89-2.66,1.34c0.82,2.89,2.12,5.62,3.85,8.08c1.54,2.3,3.46,4.38,5.74,6.12
	C36.46,49.79,41.72,49.12,44.12,46.27L44.12,46.27L44.12,46.27z"/>
<path class="st2" d="M30.52,40.9c6.88,5.24,11.7,5.61,14.48,3.9c0.04-0.11,0.08-0.22,0.11-0.32c-2.8,1.63-7.58,1.2-14.37-3.97
	c-2.24-1.71-4.18-3.78-5.74-6.12c-1.41-2.01-2.53-4.2-3.34-6.51c-0.11,0.05-0.21,0.09-0.31,0.13c0.82,2.41,1.97,4.69,3.43,6.77
	C26.32,37.08,28.24,39.16,30.52,40.9L30.52,40.9L30.52,40.9z"/>
<radialGradient id="SVGID_00000015319398744377447560000017177472052278102182_" cx="-932.0811" cy="730.5583" r="1" gradientTransform="matrix(-3.3192 5.749 5.749 3.3192 -7272.6582 2948.9375)" gradientUnits="userSpaceOnUse">
	<stop  offset="0" style="stop-color:#FFFFFF"/>
	<stop  offset="1" style="stop-color:#FFFFFF;stop-opacity:0"/>
</radialGradient>
<path style="opacity:0.3;fill:url(#SVGID_00000015319398744377447560000017177472052278102182_);enable-background:new    ;" d="
	M19.12,21.72c0.31-0.13,0.63-0.25,0.94-0.36c0.59-4.55,2.56-10.19,6.65-14.56c-1.53,0.22-3.03,0.58-4.49,1.09
	c-3.52,4.54-4.69,10.18-4.64,14.51C18.07,22.17,18.58,21.94,19.12,21.72L19.12,21.72L19.12,21.72z"/>
<linearGradient id="SVGID_00000079474294601959426510000015129930268328648083_" gradientUnits="userSpaceOnUse" x1="27.0233" y1="54.9982" x2="23.9043" y2="49.4112" gradientTransform="matrix(1 0 0 -1 0 62.1877)">
	<stop  offset="0" style="stop-color:#FFFFFF;stop-opacity:0"/>
	<stop  offset="1" style="stop-color:#FFFFFF"/>
</linearGradient>
<path style="opacity:0.4;fill:url(#SVGID_00000079474294601959426510000015129930268328648083_);enable-background:new    ;" d="
	M20.06,21.36c0.16-0.06,0.31-0.12,0.47-0.17c0.66-4.55,2.72-10.17,6.89-14.48c-0.24,0.03-0.47,0.06-0.71,0.09
	C22.62,11.17,20.64,16.8,20.06,21.36L20.06,21.36L20.06,21.36z"/>
<linearGradient id="SVGID_00000042714651862481560400000017484563581810996671_" gradientUnits="userSpaceOnUse" x1="28.4245" y1="57.833" x2="18.6485" y2="54.989" gradientTransform="matrix(1 0 0 -1 0 62.1877)">
	<stop  offset="0" style="stop-color:#231F20"/>
	<stop  offset="1" style="stop-color:#FFFFFF"/>
</linearGradient>
<path style="opacity:0.4;fill:url(#SVGID_00000042714651862481560400000017484563581810996671_);enable-background:new    ;" d="
	M27.96,0.07C19.73,0.63,12.5,4.47,7.45,10.21l-0.11,0.13c0.98,0.98,4.19,2.9,5.49,3.7c2.59-2.79,5.82-4.9,9.41-6.17
	c0.25-0.33,0.52-0.65,0.8-0.97c3.39-3.83,8.01-5.84,13.38-5.84c0.6,0,1.81,0.1,1.84,0.1C34.91,0.2,31.43-0.17,27.96,0.07L27.96,0.07
	z"/>
<linearGradient id="SVGID_00000145035506040011508540000008405964435150529199_" gradientUnits="userSpaceOnUse" x1="9.9543" y1="20.5589" x2="18.1283" y2="12.0269" gradientTransform="matrix(1 0 0 -1 0 62.1877)">
	<stop  offset="0" style="stop-color:#231F20"/>
	<stop  offset="1" style="stop-color:#FFFFFF"/>
</linearGradient>
<path style="opacity:0.4;fill:url(#SVGID_00000145035506040011508540000008405964435150529199_);enable-background:new    ;" d="
	M31.59,53.4c-6.38,0.44-12.35-1.74-16.85-5.61c-0.42-0.06-0.84-0.13-1.26-0.21c-5.01-1.02-9.07-4.02-11.75-8.67
	c-0.3-0.51-0.56-1.04-0.81-1.58c3.47,13.82,16.41,23.6,31.12,22.6C32.1,58.42,31.65,54.9,31.59,53.4L31.59,53.4z"/>
<linearGradient id="SVGID_00000145774159572852954770000017514357071413409676_" gradientUnits="userSpaceOnUse" x1="53.8223" y1="21.8447" x2="56.6663" y2="30.4907" gradientTransform="matrix(1 0 0 -1 0 62.1877)">
	<stop  offset="0" style="stop-color:#231F20"/>
	<stop  offset="1" style="stop-color:#FFFFFF"/>
</linearGradient>
<path style="opacity:0.4;fill:url(#SVGID_00000145774159572852954770000017514357071413409676_);enable-background:new    ;" d="
	M59.92,27.97c-0.92-0.09-5.42,0.26-6.53,0.45c0.14,2.03,0.01,4.03-0.35,5.95c0.15,0.38,0.3,0.77,0.44,1.17
	c1.62,4.85,1.05,9.86-1.63,14.51c-0.3,0.51-0.62,1.01-0.97,1.49c0,0,0.01-0.01,0.02-0.02C57,45.58,60.54,37.11,59.92,27.97
	C59.92,27.97,59.92,27.97,59.92,27.97z"/>
<linearGradient id="SVGID_00000088812708481776761150000016525641232489476488_" gradientUnits="userSpaceOnUse" x1="32.8754" y1="52.8872" x2="45.9784" y2="49.8882" gradientTransform="matrix(1 0 0 -1 0 62.1877)">
	<stop  offset="0" style="stop-color:#231F20"/>
	<stop  offset="1" style="stop-color:#FFFFFF"/>
</linearGradient>
<path style="opacity:0.5;fill:url(#SVGID_00000088812708481776761150000016525641232489476488_);enable-background:new    ;" d="
	M36.73,7.8c0.66,0.07,1.36,0.23,1.99,0.44c0.03,0.01,0.06,0.02,0.09,0.02c2.58,1.05,4.94,2.55,7,4.43c0,0,0.01,0.01,0.01,0.01
	c0.99-1.12,2.88-2.36,2.88-2.36s-2.9-2.97-7.34-3.89c-3.11-0.65-10.11-1.27-14.54,6.25l0.04-0.04c0.33-0.49,0.67-0.98,1.07-1.42
	C30.07,8.83,33.26,7.45,36.73,7.8z"/>
<linearGradient id="SVGID_00000160888392543808411760000018179254836192501693_" gradientUnits="userSpaceOnUse" x1="46.4836" y1="19.3479" x2="37.3286" y2="9.4979" gradientTransform="matrix(1 0 0 -1 0 62.1877)">
	<stop  offset="0" style="stop-color:#231F20"/>
	<stop  offset="1" style="stop-color:#FFFFFF"/>
</linearGradient>
<path style="opacity:0.5;fill:url(#SVGID_00000160888392543808411760000018179254836192501693_);enable-background:new    ;" d="
	M45.85,46.93c-0.4,0.55-0.86,1.05-1.38,1.5c-0.02,0.02-0.05,0.04-0.07,0.06c-2.2,1.7-4.68,3.01-7.33,3.85c-0.01,0-0.01,0-0.02,0.01
	c0.48,1.42,0.61,3.68,0.61,3.68s4.02-1.03,7.04-4.41c2.11-2.37,6.15-8.13,1.85-15.72c0,0,0.01,0.03,0.02,0.06
	c0.27,0.53,0.51,1.07,0.69,1.63C48.29,40.64,47.9,44.09,45.85,46.93L45.85,46.93z"/>
<linearGradient id="SVGID_00000060717953989581431910000009996528437662090400_" gradientUnits="userSpaceOnUse" x1="10.6297" y1="24.3261" x2="6.6797" y2="37.1751" gradientTransform="matrix(1 0 0 -1 0 62.1877)">
	<stop  offset="0" style="stop-color:#231F20"/>
	<stop  offset="1" style="stop-color:#FFFFFF"/>
</linearGradient>
<path style="opacity:0.5;fill:url(#SVGID_00000060717953989581431910000009996528437662090400_);enable-background:new    ;" d="
	M7.41,35.28C7.14,34.65,6.93,34,6.79,33.33c-0.01-0.03-0.01-0.06-0.02-0.09c-0.38-2.77-0.26-5.57,0.33-8.27v-0.02
	c-1.47-0.29-3.49-1.31-3.49-1.31s-1.12,4,0.3,8.3c1,3.01,3.96,9.39,12.68,9.46c0,0-0.02-0.01-0.06-0.02
	c-0.59-0.04-1.18-0.1-1.76-0.22C11.63,40.52,8.84,38.46,7.41,35.28L7.41,35.28z"/>
<linearGradient id="SVGID_00000083054836952239058890000005500674916948351144_" gradientUnits="userSpaceOnUse" x1="35.7384" y1="48.0561" x2="31.5954" y2="43.9071" gradientTransform="matrix(1 0 0 -1 0 62.1877)">
	<stop  offset="0" style="stop-color:#231F20"/>
	<stop  offset="1" style="stop-color:#FFFFFF"/>
</linearGradient>
<path style="opacity:0.6;fill:url(#SVGID_00000083054836952239058890000005500674916948351144_);enable-background:new    ;" d="
	M35.46,19.52c0.24,0.03,0.48,0.04,0.71,0.03c0,0-0.16-3.12-0.54-4.72c-0.38-1.6-0.95-2.66-1.57-3.26c-0.45-0.43-1.85-0.97-2.94,2.33
	c-0.35,2.74,1.58,5.25,4.32,5.61C35.46,19.51,35.46,19.51,35.46,19.52L35.46,19.52L35.46,19.52z"/>
<linearGradient id="SVGID_00000034809063545795730040000000762216225116498327_" gradientUnits="userSpaceOnUse" x1="13.3854" y1="29.2305" x2="19.0474" y2="27.7095" gradientTransform="matrix(1 0 0 -1 0 62.1877)">
	<stop  offset="0" style="stop-color:#231F20"/>
	<stop  offset="1" style="stop-color:#FFFFFF"/>
</linearGradient>
<path style="opacity:0.5;fill:url(#SVGID_00000034809063545795730040000000762216225116498327_);enable-background:new    ;" d="
	M18.19,30.51c-0.09-0.22-0.2-0.43-0.32-0.63c0,0-2.62,1.69-3.82,2.82c-1.19,1.13-1.83,2.15-2.04,2.99c-0.15,0.6,0.09,2.08,3.49,1.38
	C18.05,35.99,19.25,33.06,18.19,30.51L18.19,30.51z"/>
<linearGradient id="SVGID_00000064328609853007874310000015176208302208842426_" gradientUnits="userSpaceOnUse" x1="40.8599" y1="19.2847" x2="39.3429" y2="24.9447" gradientTransform="matrix(1 0 0 -1 0 62.1877)">
	<stop  offset="0" style="stop-color:#231F20"/>
	<stop  offset="1" style="stop-color:#FFFFFF"/>
</linearGradient>
<path style="opacity:0.6;fill:url(#SVGID_00000064328609853007874310000015176208302208842426_);enable-background:new    ;" d="
	M36.34,39.97c-0.14,0.19-0.27,0.4-0.38,0.6c0,0,2.78,1.42,4.35,1.89c1.58,0.47,2.78,0.51,3.6,0.27c0.6-0.17,1.76-1.12-0.55-3.71
	C41.16,37.35,38.01,37.77,36.34,39.97C36.34,39.97,36.34,39.97,36.34,39.97C36.34,39.97,36.34,39.97,36.34,39.97z"/>
<linearGradient id="SVGID_00000075861152508581644050000014451323719576902531_" gradientUnits="userSpaceOnUse" x1="32.2356" y1="24.3226" x2="34.7256" y2="27.7566" gradientTransform="matrix(1 0 0 -1 0 62.1877)">
	<stop  offset="0" style="stop-color:#231F20"/>
	<stop  offset="1" style="stop-color:#FFFFFF"/>
</linearGradient>
<path style="opacity:0.3;fill:url(#SVGID_00000075861152508581644050000014451323719576902531_);enable-background:new    ;" d="
	M35.26,27.05c-0.63,2.09-1.51,4-2.6,5.68c-0.06,0.09-0.11,0.17-0.17,0.27c0,0,0,0.01-0.01,0.01c-0.76,1.09-1.62,2.11-2.57,3.03
	c0.69,0.73,1.43,1.44,2.24,2.11c0.93,0.73,1.91,1.39,2.94,1.97c2.09-2.16,3.8-4.65,5.07-7.37c0.45-0.92,0.85-1.87,1.19-2.84
	c-1.06-0.77-2.12-1.4-3.11-1.82C37.27,27.67,36.27,27.32,35.26,27.05L35.26,27.05L35.26,27.05z"/>
<linearGradient id="SVGID_00000145779094747843590270000012747847418182862473_" gradientUnits="userSpaceOnUse" x1="23.6749" y1="25.8098" x2="18.6999" y2="23.4378" gradientTransform="matrix(1 0 0 -1 0 62.1877)">
	<stop  offset="0" style="stop-color:#231F20"/>
	<stop  offset="1" style="stop-color:#FFFFFF"/>
</linearGradient>
<path style="opacity:0.3;fill:url(#SVGID_00000145779094747843590270000012747847418182862473_);enable-background:new    ;" d="
	M14.73,47.79c5.69,0.78,11.16-1.03,14.89-3.24c-0.46-0.32-0.91-0.65-1.36-0.99c-1.42-1.08-2.72-2.31-3.88-3.67
	c-2.8,1.23-6.34,1.94-9.61,1.28c-3.16-0.65-5.95-2.71-7.38-5.89c-0.27-0.62-0.48-1.28-0.62-1.95C7.61,39.13,10.53,44.19,14.73,47.79
	L14.73,47.79L14.73,47.79z"/>
<linearGradient id="SVGID_00000035529199018320221960000012167279119125974419_" gradientUnits="userSpaceOnUse" x1="21.8737" y1="34.0922" x2="23.4137" y2="30.8932" gradientTransform="matrix(1 0 0 -1 0 62.1877)">
	<stop  offset="0" style="stop-color:#231F20"/>
	<stop  offset="1" style="stop-color:#FFFFFF"/>
</linearGradient>
<path style="opacity:0.3;fill:url(#SVGID_00000035529199018320221960000012167279119125974419_);enable-background:new    ;" d="
	M29.91,36.04c-1.44-1.52-2.65-3.23-3.61-5.09c-0.05-0.1-0.1-0.18-0.14-0.28v-0.01c-0.56-1.2-1.01-2.46-1.34-3.74
	c-0.98,0.23-1.96,0.52-2.94,0.89c-1.09,0.44-2.16,0.96-3.17,1.55c0.91,3.17,2.26,5.84,3.84,8.08c0.57,0.85,1.19,1.66,1.86,2.45
	c1.2-0.52,2.27-1.15,3.13-1.79C28.37,37.46,29.17,36.77,29.91,36.04C29.92,36.03,29.91,36.04,29.91,36.04z"/>
<linearGradient id="SVGID_00000008134704632400372460000002049306408587338677_" gradientUnits="userSpaceOnUse" x1="29.0274" y1="43.9664" x2="27.9644" y2="47.6374" gradientTransform="matrix(1 0 0 -1 0 62.1877)">
	<stop  offset="0" style="stop-color:#231F20"/>
	<stop  offset="1" style="stop-color:#FFFFFF"/>
</linearGradient>
<path style="opacity:0.3;fill:url(#SVGID_00000008134704632400372460000002049306408587338677_);enable-background:new    ;" d="
	M22.22,7.89c-3.52,4.54-4.69,10.18-4.64,14.51c0.51-0.24,1.02-0.47,1.53-0.68c1.65-0.69,3.36-1.2,5.11-1.52
	c0.34-3.04,1.48-6.46,3.7-8.95c2.14-2.42,5.32-3.8,8.8-3.44c0.66,0.07,1.36,0.23,1.99,0.44c0.03,0.01,0.06,0.02,0.09,0.02
	c-3.29-1.34-6.85-1.91-10.4-1.67c-2.16,0.15-4.22,0.59-6.17,1.27C22.22,7.88,22.22,7.89,22.22,7.89L22.22,7.89L22.22,7.89z"/>
<linearGradient id="SVGID_00000024711189725050299300000009395063918056965778_" gradientUnits="userSpaceOnUse" x1="40.5215" y1="27.1555" x2="43.6015" y2="26.4465" gradientTransform="matrix(1 0 0 -1 0 62.1877)">
	<stop  offset="0" style="stop-color:#231F20"/>
	<stop  offset="1" style="stop-color:#FFFFFF"/>
</linearGradient>
<path style="opacity:0.3;fill:url(#SVGID_00000024711189725050299300000009395063918056965778_);enable-background:new    ;" d="
	M53.03,34.32c-2.18-5.31-6.48-9.15-10.26-11.27c-0.05,0.54-0.1,1.09-0.18,1.67c-0.23,1.77-0.64,3.51-1.24,5.19
	c2.47,1.82,4.86,4.51,5.92,7.68c1.02,3.06,0.63,6.51-1.41,9.34c-0.4,0.55-0.86,1.05-1.38,1.5l-0.02,0.02
	c4.4-3.46,7.52-8.45,8.59-14.1c0-0.01-0.01-0.02-0.01-0.03L53.03,34.32L53.03,34.32z"/>
<linearGradient id="SVGID_00000156559500064474907660000010941924280040712356_" gradientUnits="userSpaceOnUse" x1="35.6894" y1="37.5613" x2="31.7824" y2="38.2703" gradientTransform="matrix(1 0 0 -1 0 62.1877)">
	<stop  offset="0" style="stop-color:#231F20"/>
	<stop  offset="1" style="stop-color:#FFFFFF"/>
</linearGradient>
<path style="opacity:0.3;fill:url(#SVGID_00000156559500064474907660000010941924280040712356_);enable-background:new    ;" d="
	M24.21,23.81c0.13,1.05,0.32,2.08,0.59,3.1c2.13-0.5,4.22-0.69,6.22-0.59l0.32,0.01h0.01c1.25,0.1,2.56,0.33,3.91,0.7
	c0.29-0.96,0.53-1.96,0.7-2.99c0.19-1.29,0.25-2.49,0.24-3.53c-3.2-0.79-6.19-0.95-8.91-0.7c-1.03,0.07-2.05,0.2-3.06,0.39
	C24.09,21.5,24.09,22.74,24.21,23.81C24.22,23.81,24.21,23.81,24.21,23.81z"/>
</svg>
