<?xml version="1.0" encoding="utf-8"?>
<!-- Generator: Adobe Illustrator 27.9.0, SVG Export Plug-In . SVG Version: 6.00 Build 0)  -->
<svg version="1.1" id="Calque_1" xmlns="http://www.w3.org/2000/svg" xmlns:xlink="http://www.w3.org/1999/xlink" x="0px" y="0px"
	 viewBox="0 0 159.23 159.19" style="enable-background:new 0 0 159.23 159.19;" xml:space="preserve">
<style type="text/css">
	.st0{clip-path:url(#SVGID_00000084503967671962516910000017702514647884369571_);}
	.st1{fill:none;stroke:#FFFFFF;stroke-width:1.5;}
	.st2{fill:#FFFFFF;}
</style>
<g>
	<g>
		<defs>
			<rect id="SVGID_1_" x="-2.65" y="-8.44" width="165.19" height="176.06"/>
		</defs>
		<clipPath id="SVGID_00000083084007147711087620000005997176571066127551_">
			<use xlink:href="#SVGID_1_"  style="overflow:visible;"/>
		</clipPath>
		<g style="clip-path:url(#SVGID_00000083084007147711087620000005997176571066127551_);">
			<path class="st1" d="M19.09,31.11L79.61-0.83l60.52,31.94v63.88l-60.52,31.94L19.09,94.99V31.11z"/>
			<path class="st1" d="M79.61,63.05l60.52-31.94 M79.61,63.05L19.09,31.11 M79.61,63.05v63.88"/>
			<path class="st2" d="M50.39,150.53c-1.19,0-2.23-0.3-3.14-0.9c-0.91-0.61-1.62-1.46-2.13-2.56c-0.51-1.11-0.77-2.41-0.77-3.92
				c0-1.49,0.26-2.79,0.77-3.89c0.51-1.1,1.23-1.95,2.14-2.55s1.97-0.9,3.17-0.9c0.93,0,1.66,0.15,2.2,0.46
				c0.54,0.3,0.96,0.65,1.24,1.04c0.29,0.38,0.52,0.7,0.68,0.94h0.19v-7h2.19v18.97h-2.11v-2.19h-0.26
				c-0.16,0.26-0.39,0.59-0.69,0.98s-0.72,0.74-1.27,1.05C52.04,150.38,51.31,150.53,50.39,150.53z M50.69,148.57
				c0.88,0,1.62-0.23,2.22-0.68c0.61-0.46,1.07-1.1,1.38-1.92c0.31-0.82,0.47-1.77,0.47-2.84c0-1.06-0.15-1.99-0.46-2.79
				c-0.31-0.8-0.77-1.43-1.37-1.87c-0.61-0.45-1.35-0.68-2.24-0.68c-0.93,0-1.7,0.24-2.32,0.71c-0.61,0.47-1.07,1.11-1.38,1.92
				c-0.3,0.8-0.45,1.71-0.45,2.71c0,1.01,0.15,1.93,0.46,2.76c0.31,0.82,0.78,1.48,1.39,1.96
				C49.01,148.33,49.78,148.57,50.69,148.57z M62.3,150.23h-2.41l6.97-18.97h2.37l6.97,18.97h-2.41l-5.67-15.97h-0.15L62.3,150.23z
				 M63.19,142.82h9.71v2.04h-9.71V142.82z M78.85,155.57v-19.56h2.11v2.26h0.26c0.16-0.25,0.38-0.56,0.67-0.94
				c0.29-0.39,0.7-0.73,1.24-1.04s1.28-0.46,2.2-0.46c1.2,0,2.25,0.3,3.17,0.9c0.91,0.6,1.63,1.45,2.14,2.55s0.77,2.4,0.77,3.89
				c0,1.51-0.26,2.81-0.77,3.92c-0.51,1.1-1.22,1.95-2.13,2.56c-0.91,0.6-1.95,0.9-3.14,0.9c-0.91,0-1.65-0.15-2.2-0.45
				c-0.55-0.31-0.97-0.66-1.27-1.05c-0.3-0.4-0.52-0.72-0.69-0.98h-0.19v7.52h-2.17V155.57z M81,143.12c0,1.07,0.16,2.02,0.47,2.84
				c0.31,0.82,0.77,1.45,1.38,1.92c0.61,0.46,1.35,0.68,2.22,0.68c0.91,0,1.68-0.24,2.29-0.72c0.62-0.49,1.08-1.14,1.39-1.96
				c0.31-0.83,0.47-1.75,0.47-2.76c0-1-0.15-1.9-0.46-2.71c-0.3-0.81-0.76-1.45-1.38-1.92c-0.61-0.47-1.38-0.71-2.31-0.71
				c-0.89,0-1.64,0.22-2.24,0.68c-0.61,0.44-1.06,1.07-1.37,1.87C81.15,141.13,81,142.06,81,143.12z M94.74,155.57v-19.56h2.11v2.26
				h0.26c0.16-0.25,0.38-0.56,0.67-0.94c0.29-0.39,0.7-0.73,1.24-1.04s1.28-0.46,2.2-0.46c1.2,0,2.25,0.3,3.17,0.9
				c0.91,0.6,1.63,1.45,2.14,2.55s0.77,2.4,0.77,3.89c0,1.51-0.26,2.81-0.77,3.92c-0.51,1.1-1.22,1.95-2.13,2.56
				c-0.91,0.6-1.95,0.9-3.14,0.9c-0.91,0-1.65-0.15-2.2-0.45c-0.55-0.31-0.97-0.66-1.27-1.05c-0.3-0.4-0.52-0.72-0.69-0.98h-0.19
				v7.52h-2.17V155.57z M96.89,143.12c0,1.07,0.16,2.02,0.47,2.84c0.31,0.82,0.77,1.45,1.38,1.92c0.61,0.46,1.35,0.68,2.22,0.68
				c0.91,0,1.68-0.24,2.29-0.72c0.62-0.49,1.08-1.14,1.39-1.96c0.31-0.83,0.47-1.75,0.47-2.76c0-1-0.15-1.9-0.46-2.71
				c-0.3-0.81-0.76-1.45-1.38-1.92c-0.61-0.47-1.38-0.71-2.31-0.71c-0.89,0-1.64,0.22-2.24,0.68c-0.61,0.44-1.06,1.07-1.37,1.87
				C97.05,141.13,96.89,142.06,96.89,143.12z"/>
		</g>
	</g>
</g>
</svg>
